<svg aria-hidden="true" style="position: absolute; width: 0; height: 0; overflow: hidden;" version="1.1" xmlns="http://www.w3.org/2000/svg" xmlns:xlink="http://www.w3.org/1999/xlink">
<defs>
<symbol id="icon-tv" viewBox="0 0 32 32">
<path d="M28.015 28.944h-2.049v1.056h-3.043v-1.056h-13.908v1.056h-3.043l0.001-1.056h-1.988c-1.098 0-1.987-0.89-1.987-1.987v-18.937c0-1.097 0.89-1.987 1.987-1.987h6.954c0 0 0.438-0.608 1.239-1.162l-2.553-2.554 0.703-0.702 2.755 2.754c0.524-0.225 1.131-0.385 1.83-0.385 0.743 0 1.373 0.183 1.91 0.43l2.799-2.799 0.702 0.702-2.614 2.615c0.729 0.537 1.115 1.102 1.115 1.102h9.189c1.098 0 1.987 0.89 1.987 1.987v18.937c0.001 1.097-0.889 1.986-1.986 1.986zM20.937 10.007c0-0.549-0.445-0.993-0.994-0.993h-13.908c-0.549 0-0.994 0.444-0.994 0.993v14.964c0 0.549 0.445 0.993 0.994 0.993h13.907c0.549 0 0.994-0.444 0.994-0.993v-14.964zM24.042 25.964h2.917v-0.993h-2.917v0.993zM24.042 23.977h2.917v-0.992h-2.917v0.992zM24.042 21.928h2.917v-0.993h-2.917v0.993zM24.042 19.941h2.917v-0.994h-2.917v0.994zM25.431 9.038c-0.822 0-1.49 0.667-1.49 1.49s0.668 1.49 1.49 1.49c0.823 0 1.49-0.667 1.49-1.49s-0.667-1.49-1.49-1.49zM25.431 13c-0.822 0-1.49 0.666-1.49 1.489s0.668 1.49 1.49 1.49c0.823 0 1.49-0.667 1.49-1.49s-0.667-1.489-1.49-1.489z"></path>
</symbol>
<symbol id="icon-camera" viewBox="0 0 32 32">
<path d="M28 8h-5.938c0 0-0.062-0.119-0.062-1.5s-1.119-2.5-2.5-2.5h-8c-1.381 0-2.5 1.119-2.5 2.5s0.062 1.5 0.062 1.5h-6.062c-1.104 0-2 0.896-2 2v16c0 1.104 0.896 2 2 2h25c1.104 0 2-0.896 2-2v-16c0-1.104-0.896-2-2-2zM15.545 23.973c-3.314 0-6-2.686-6-6s2.686-6 6-6c3.313 0 6 2.686 6 6s-2.687 6-6 6z"></path>
</symbol>
<symbol id="icon-film" viewBox="0 0 32 32">
<path d="M30.335 26.445c-0.128-0.221-0.538-0.289-1.231-0.202-1.275 0.165-2.201-0.251-2.778-1.251-0.437-0.756-0.55-1.516-0.339-2.28s0.836-1.854 1.874-3.272l0.649-0.904c1.928-2.663 2.323-4.979 1.186-6.95-1.157-2.006-4.5-1.837-6.903-0.806-1.944-4.009-6.040-6.78-10.793-6.78-6.628 0-12 5.373-12 12s5.372 12 12 12c6.627 0 12-5.373 12-12 0-1.469-0.277-2.871-0.76-4.171 0.811-0.291 1.781-0.502 2.696-0.536 1.202-0.044 2.29 0.208 2.722 0.956 0.963 1.669 0.498 3.641-1.395 5.913l-0.388 0.466c-2.214 2.657-2.743 4.984-1.591 6.982 0.466 0.806 1.207 1.381 2.225 1.727 1.018 0.345 1.879 0.312 2.585-0.096 0.35-0.202 0.431-0.468 0.241-0.796zM6.5 18.562c-1.381 0-2.5-1.119-2.5-2.5 0-1.38 1.119-2.5 2.5-2.5s2.5 1.119 2.5 2.5c0 1.381-1.119 2.5-2.5 2.5zM12 24.062c-1.381 0-2.5-1.119-2.5-2.5s1.119-2.5 2.5-2.5 2.5 1.119 2.5 2.5-1.119 2.5-2.5 2.5zM11.020 16.062c0-0.552 0.449-1 1.001-1s1 0.447 1 1c0 0.553-0.448 1-1 1s-1.001-0.447-1.001-1zM12 13.062c-1.381 0-2.5-1.119-2.5-2.5s1.119-2.5 2.5-2.5 2.5 1.119 2.5 2.5c0 1.381-1.119 2.5-2.5 2.5zM17.5 18.562c-1.381 0-2.5-1.119-2.5-2.5 0-1.38 1.119-2.5 2.5-2.5s2.5 1.119 2.5 2.5c0 1.381-1.119 2.5-2.5 2.5z"></path>
</symbol>
<symbol id="icon-coffee" viewBox="0 0 32 32">
<path d="M29.984 15.548c-0.378-3.639-4.063-3.618-5.977-3.553 0.009-0.553 0.015-0.999 0.015-0.999l-22.027-0.007c0 0 0 3.014 0 3.089 0 4.281 2.445 7.984 6.011 9.809v1.068h10.019v-1.068c1-0.512 1.897-1.184 2.691-1.961 4.915-1.176 10.070-2.873 9.268-6.378zM22.25 20.066c1.123-1.725 1.786-3.775 1.786-5.988 0 0.017 0.001-0.029 0.002-0.116 1.785-0.059 3.755-0.237 4.201 1.54 0.448 1.955-2.817 3.547-5.989 4.564zM8.83 6.99c0 1-1.64 2.065-1.64 2.065s3.214-0.574 3.214-2.074-3.187-0.5-3.187-1.625 1.577-2.19 1.577-2.19-3.025 0.637-3.025 2.199 3.061 0.625 3.061 1.625zM13.83 7.99c0 1-1.64 2.065-1.64 2.065s3.214-0.574 3.214-2.074-3.187-0.5-3.187-1.625 1.577-2.19 1.577-2.19-3.026 0.637-3.026 2.199 3.062 0.625 3.062 1.625zM17.83 6.99c0 1-1.64 2.065-1.64 2.065s3.214-0.574 3.214-2.074-3.187-0.5-3.187-1.625 1.577-2.19 1.577-2.19-3.026 0.637-3.026 2.199 3.062 0.625 3.062 1.625zM1.933 25.928c0 1.381 4.925 2.5 11 2.5s11-1.119 11-2.5c0 0.029-22 0.029-22 0z"></path>
</symbol>
<symbol id="icon-icecream" viewBox="0 0 32 32">
<path d="M20.804 10.742c1.448-3.62-1.789-4.217-1.789-4.174 1.022-2.556-1.022-4.26-2.896-4.26s-1.789 0.853-1.789 0.853 1.022-0.213 1.022 0.596c0 0.81-0.938 0.767-1.874 1.704-0.938 0.937-0.49 0.81-0.554 0.81 1.948-0.128 3.088 1.885 5.239 1.149-2.13 1.065-2.641-0.628-4.941-0.713-0.298 0-2.002-0.33-2.002 2.928 2.492 0.288 3.578 2.002 6.943 1.619-3.791 1.405-8.54-4.409-9.2 1.959 0 1.363 1.021 2.048 1.021 2.048s11.799 0 11.757 0c2.342-1.022 1.193-4.732-0.937-4.519zM16.072 31l5.328-15.069h-10.773l5.445 15.069z"></path>
</symbol>
<symbol id="icon-bookmark" viewBox="0 0 32 32">
<path d="M25 29h-16v-22h7v9.125l3.541-2.688 3.459 2.688v-9.125h4v20c0 1.104-0.896 2-2 2zM19.541 12.125l-2.541 2v-8.125h5v8.125l-2.459-2zM6 5v1c0 0.552 0.448 1 1 1h1v22h-1c-1.104 0-2-0.896-2-2v-22c0-1.104 0.896-2 2-2h18c0.738 0 1.376 0.404 1.723 1h-19.723c-0.552 0-1 0.447-1 1z"></path>
</symbol>
</defs>
</svg>
